<?xml version="1.0" encoding="UTF-8" standalone="no"?>
<svg
   version="1.1"
   id="svg78"
   width="560"
   height="160"
   viewBox="0 0 560 160"
   sodipodi:docname="tinytools_alpha.svg"
   inkscape:version="1.3.2 (091e20ef0f, 2023-11-25, custom)"
   xmlns:inkscape="http://www.inkscape.org/namespaces/inkscape"
   xmlns:sodipodi="http://sodipodi.sourceforge.net/DTD/sodipodi-0.dtd"
   xmlns="http://www.w3.org/2000/svg"
   xmlns:svg="http://www.w3.org/2000/svg"
   xmlns:rdf="http://www.w3.org/1999/02/22-rdf-syntax-ns#"
   xmlns:cc="http://creativecommons.org/ns#"
   xmlns:dc="http://purl.org/dc/elements/1.1/">
  <sodipodi:namedview
     id="namedview1"
     pagecolor="#ffffff"
     bordercolor="#000000"
     borderopacity="0.25"
     inkscape:showpageshadow="2"
     inkscape:pageopacity="0.0"
     inkscape:pagecheckerboard="0"
     inkscape:deskcolor="#d1d1d1"
     inkscape:zoom="1.9458063"
     inkscape:cx="241.28815"
     inkscape:cy="97.902858"
     inkscape:window-width="2560"
     inkscape:window-height="1012"
     inkscape:window-x="0"
     inkscape:window-y="32"
     inkscape:window-maximized="1"
     inkscape:current-layer="svg78" />
  <metadata
     id="metadata84">
    <rdf:RDF>
      <cc:Work
         rdf:about="">
        <dc:format>image/svg+xml</dc:format>
        <dc:type
           rdf:resource="http://purl.org/dc/dcmitype/StillImage" />
      </cc:Work>
    </rdf:RDF>
  </metadata>
  <defs
     id="defs82" />
  <g
     id="g86"
     transform="matrix(1.12,0,0,1.12,-19.305113,-23.505623)">
    <g
       id="g90"
       transform="translate(-12.763292,12.415735)">
      <path
         style="fill:#64dffa"
         d="M 210,70 V 60 H 200 190 V 50 40 h 30 30 v 10 10 h -10 -10 v 10 10 h -10 -10 z m 50,5 v -5 h 10 10 V 65 60 H 270 260 V 50 40 h 30 30 v 10 10 h -10 -10 v 5 5 h 10 10 v 5 5 H 290 260 Z M 330,60 V 40 h 15 15 v 5 5 h 5 5 v -5 -5 h 10 10 V 60 80 H 375 360 V 70 60 h -5 -5 v 10 10 h -10 -10 z m 90,10 V 60 H 410 400 V 50 40 h 10 10 v 5 5 h 10 10 v -5 -5 h 10 10 V 50 60 H 450 440 V 70 80 H 430 420 Z M 50,65 v -5 h -5 -5 v -5 -5 h 15 15 v 5 5 h -5 -5 v 5 5 h -5 -5 z"
         id="path96" />
      <path
         style="fill:#121313"
         d="M 70,100 V 80 H 50 30 V 60 40 h 60 60 v 20 20 h -20 -20 v 20 20 H 90 70 Z M 60,65 v -5 h 5 5 V 55 50 H 55 40 v 5 5 h 5 5 v 5 5 h 5 5 z m 150,45 V 100 H 200 190 V 90 80 h 30 30 v 10 10 h -10 -10 v 10 10 h -10 -10 z m 50,-10 V 80 h 30 30 v 20 20 h -30 -30 z m 40,5 v -5 h -10 -10 v 5 5 h 10 10 z m 30,-5 V 80 h 30 30 v 20 20 h -30 -30 z m 40,5 v -5 h -10 -10 v 5 5 h 10 10 z m 30,-5 V 80 h 10 10 v 15 15 h 20 20 v 5 5 h -30 -30 z m 70,15 v -5 h 15 15 v -5 -5 H 485 470 V 90 80 h 30 30 v 5 5 h -15 -15 v 5 5 h 15 15 v 10 10 h -30 -30 z"
         id="path92" />
    </g>
  </g>
</svg>
